<svg width="947" height="782" viewBox="0 0 947 782" fill="none" xmlns="http://www.w3.org/2000/svg">
<path d="M937.191 510.38L157.748 751.29L157.868 751.679L937.312 510.77L937.191 510.38Z" fill="#EBEBEB"/>
<path d="M866.843 559.601L815.213 575.559L815.333 575.949L866.964 559.991L866.843 559.601Z" fill="#EBEBEB"/>
<path d="M683.145 621.024L669.599 625.211L669.719 625.601L683.266 621.414L683.145 621.024Z" fill="#EBEBEB"/>
<path d="M809.183 561.575L779.268 570.821L779.389 571.211L809.304 561.964L809.183 561.575Z" fill="#EBEBEB"/>
<path d="M310.946 718.438L243.618 739.248L243.738 739.638L311.066 718.828L310.946 718.438Z" fill="#EBEBEB"/>
<path d="M334.703 711.096L324.835 714.146L324.956 714.535L334.824 711.485L334.703 711.096Z" fill="#EBEBEB"/>
<path d="M514.855 662.621L368.818 707.758L368.939 708.148L514.975 663.011L514.855 662.621Z" fill="#EBEBEB"/>
<path d="M505.715 567.572L204.709 660.606C202.35 661.331 199.799 661.09 197.618 659.936C195.436 658.782 193.801 656.81 193.072 654.452L62.292 231.323C61.5879 228.972 61.8398 226.438 62.9929 224.272C64.146 222.106 66.1072 220.482 68.4506 219.753L369.456 126.719C371.817 125.989 374.371 126.227 376.556 127.38C378.741 128.534 380.379 130.508 381.109 132.869L511.865 555.919C512.594 558.28 512.356 560.834 511.203 563.019C510.05 565.205 508.075 566.842 505.715 567.572ZM68.547 220.065C66.2935 220.766 64.4103 222.332 63.3107 224.42C62.2111 226.509 61.9849 228.948 62.6818 231.202L193.462 654.331C194.159 656.586 195.722 658.472 197.808 659.575C199.894 660.679 202.333 660.909 204.589 660.217L505.594 567.182C507.849 566.481 509.734 564.914 510.836 562.826C511.939 560.737 512.168 558.297 511.475 556.04L380.695 132.911C379.993 130.656 378.427 128.771 376.338 127.669C374.25 126.567 371.81 126.337 369.552 127.03L68.547 220.065Z" fill="#EBEBEB"/>
<path d="M842.918 463.349L541.897 556.389C539.536 557.114 536.984 556.874 534.8 555.721C532.616 554.568 530.978 552.597 530.244 550.239L399.464 127.11C398.763 124.756 399.019 122.222 400.174 120.055C401.33 117.888 403.293 116.265 405.638 115.535L706.659 22.4961C709.004 21.7804 711.536 22.0174 713.706 23.1559C715.877 24.2943 717.512 26.2424 718.256 28.5779L849.037 451.707C849.765 454.062 849.529 456.61 848.382 458.792C847.236 460.974 845.27 462.613 842.918 463.349ZM405.734 115.847C403.48 116.549 401.595 118.115 400.492 120.204C399.39 122.292 399.16 124.732 399.854 126.989L530.634 550.118C531.335 552.373 532.902 554.258 534.99 555.36C537.079 556.463 539.519 556.692 541.776 555.999L842.797 462.96C845.052 462.258 846.937 460.692 848.039 458.603C849.142 456.515 849.371 454.075 848.678 451.817L717.898 28.6887C717.196 26.4338 715.63 24.5489 713.541 23.4466C711.453 22.3444 709.013 22.1147 706.756 22.8079L405.734 115.847Z" fill="#EBEBEB"/>
<path d="M447.079 108.328C424.8 118.962 406.488 136.418 394.802 158.164C382.29 181.5 378.484 208.584 365.955 231.977C353.552 255.191 335.079 274.601 312.506 288.135C293.92 299.225 273.716 301.32 255.696 313.413C226.852 332.661 204.183 359.832 190.415 391.658C176.647 423.484 172.367 458.609 178.089 492.81C182.814 521.305 194.857 549.109 215.436 569.441C231.711 585.414 252.459 596.06 274.926 599.966C312.091 606.274 349.447 593.584 386.518 586.771C421.203 580.377 456.639 579.103 491.694 582.989C535.527 587.885 578.759 600.84 622.827 598.816C675.564 596.384 727.736 570.575 757.997 527.305C788.257 484.035 794.055 423.614 768.664 377.324C753.057 348.931 727.613 327.387 708.272 301.446C691.605 279.146 679.504 253.775 672.662 226.789C666.218 201.353 664.235 173.941 650.205 151.755C639.652 135.018 623.084 122.856 605.537 113.712C559.406 89.6125 495.354 84.6637 447.079 108.328Z" fill="#E6E6E6"/>
<path d="M389.182 328.786L381.216 331.249L377.304 325.609L377.303 332.458L369.119 334.987L377.298 338.574L377.3 349.52L381.934 340.59L390.971 345.294L384.638 336.185L389.182 328.786Z" fill="white"/>
<path d="M612.865 539.014L604.884 541.48L600.972 535.841L600.971 542.69L592.787 545.219L600.965 548.805L600.967 559.752L605.602 550.822L614.639 555.526L608.321 546.413L612.865 539.014Z" fill="white"/>
<path d="M423.403 437.295L419.989 438.35L418.318 435.929L418.321 438.865L414.813 439.949L418.31 441.482L418.32 446.158L420.303 442.351L424.166 444.351L421.46 440.457L423.403 437.295Z" fill="white"/>
<path d="M630.102 347.296L626.688 348.351L625.017 345.93L625.02 348.867L621.512 349.951L625.009 351.483L625.019 356.159L626.998 352.337L630.865 354.352L628.159 350.458L630.102 347.296Z" fill="white"/>
<path d="M413.716 399.268L410.317 400.318L408.631 397.902L408.634 400.838L405.142 401.918L408.638 403.45L408.633 408.131L410.616 404.324L414.479 406.324L411.773 402.43L413.716 399.268Z" fill="white"/>
<path d="M297.766 447.76L294.352 448.815L292.686 446.41L292.684 449.331L289.176 450.415L292.673 451.947L292.688 456.639L294.667 452.817L298.534 454.832L295.828 450.938L297.766 447.76Z" fill="white"/>
<path d="M331.877 508.449L328.479 509.5L326.793 507.083L326.795 510.02L323.303 511.099L326.8 512.632L326.795 517.312L328.773 513.49L332.641 515.506L329.934 511.611L331.877 508.449Z" fill="white"/>
<path d="M594.031 284.907L590.617 285.962L588.947 283.541L588.949 286.478L585.442 287.562L588.938 289.094L588.949 293.77L590.932 289.964L594.795 291.963L592.088 288.069L594.031 284.907Z" fill="white"/>
<path d="M540.556 201.682L538.093 202.443L536.883 200.682L536.877 202.819L534.352 203.599L536.877 204.698L536.88 208.078L538.319 205.328L541.105 206.772L539.143 203.963L540.556 201.682Z" fill="white"/>
<path d="M425.611 337.576L423.148 338.338L421.938 336.577L421.932 338.713L419.406 339.494L421.932 340.592L421.935 343.973L423.373 341.222L426.16 342.667L424.214 339.853L425.611 337.576Z" fill="white"/>
<path d="M339.326 386.071L336.863 386.832L335.642 385.092L335.647 387.208L333.122 387.988L335.647 389.086L335.655 392.482L337.073 389.721L339.864 391.181L337.918 388.367L339.326 386.071Z" fill="white"/>
<path d="M437.69 233.219L435.227 233.98L434.022 232.235L434.012 234.356L431.486 235.137L434.012 236.235L434.015 239.615L435.453 236.865L438.239 238.309L436.278 235.5L437.69 233.219Z" fill="white"/>
<path d="M659.825 296.541L657.362 297.302L656.157 295.557L656.146 297.678L653.621 298.458L656.151 299.572L656.154 302.953L657.588 300.187L660.379 301.647L658.417 298.837L659.825 296.541Z" fill="white"/>
<path d="M572.052 239.987L569.605 240.744L568.384 239.003L568.389 241.119L565.848 241.905L568.394 243.014L568.381 246.399L569.815 243.633L572.606 245.093L570.66 242.279L572.052 239.987Z" fill="white"/>
<path d="M686.731 341.048L684.268 341.809L683.047 340.069L683.053 342.185L680.527 342.965L683.057 344.079L683.06 347.459L684.478 344.698L687.285 346.154L685.319 343.329L686.731 341.048Z" fill="white"/>
<path d="M659.858 455.392L657.394 456.153L656.173 454.413L656.179 456.529L653.653 457.31L656.178 458.408L656.182 461.788L657.604 459.043L660.391 460.487L658.445 457.673L659.858 455.392Z" fill="white"/>
<path d="M586.104 365.182L583.641 365.943L582.435 364.198L582.425 366.319L579.899 367.1L582.429 368.213L582.433 371.594L583.871 368.844L586.657 370.288L584.696 367.479L586.104 365.182Z" fill="white"/>
<path d="M450.676 423.537L448.213 424.298L446.992 422.558L446.997 424.674L444.472 425.455L447.002 426.568L447.005 429.949L448.428 427.203L451.23 428.643L449.269 425.834L450.676 423.537Z" fill="white"/>
<path d="M376.014 576.048L372.6 577.103L370.929 574.682L370.916 577.623L367.424 578.703L370.921 580.235L370.932 584.911L372.91 581.089L376.777 583.104L374.071 579.21L376.014 576.048Z" fill="white"/>
<path d="M685.224 564.758L681.826 565.809L680.144 563.408L680.142 566.329L676.634 567.413L680.147 568.941L680.142 573.622L682.125 569.815L685.987 571.815L683.281 567.921L685.224 564.758Z" fill="white"/>
<path d="M434.103 482.967L430.689 484.023L429.019 481.601L429.021 484.538L425.514 485.622L429.026 487.15L429.021 491.831L431.004 488.024L434.867 490.024L432.16 486.13L434.103 482.967Z" fill="white"/>
<path d="M711.958 483.629C718.27 478.394 719.142 469.033 713.907 462.722C708.671 456.41 699.311 455.538 692.999 460.773C686.687 466.008 685.815 475.369 691.05 481.681C696.286 487.992 705.646 488.865 711.958 483.629Z" fill="white"/>
<path d="M468.439 177.604C468.929 179.189 468.938 180.884 468.465 182.473C467.992 184.063 467.058 185.477 465.781 186.536C464.504 187.595 462.942 188.252 461.293 188.423C459.643 188.594 457.979 188.272 456.512 187.498C455.045 186.724 453.841 185.532 453.051 184.073C452.262 182.614 451.922 180.954 452.076 179.303C452.23 177.651 452.87 176.082 453.916 174.795C454.962 173.507 456.365 172.558 457.95 172.068C460.075 171.412 462.374 171.626 464.341 172.664C466.308 173.702 467.783 175.479 468.439 177.604Z" fill="white"/>
<path d="M231.851 440.21L225.902 444.337C223.91 444.598 222.075 445.557 220.724 447.044C219.373 448.532 218.593 450.45 218.524 452.458L214.896 458.788C214.818 458.923 214.788 459.08 214.81 459.234C214.833 459.389 214.908 459.53 215.023 459.636C215.137 459.742 215.284 459.806 215.439 459.817C215.595 459.828 215.749 459.786 215.878 459.698L221.871 455.659C223.926 455.461 225.838 454.515 227.243 453.001C228.648 451.487 229.449 449.51 229.493 447.445L232.945 441.153C233.032 441.004 233.064 440.831 233.035 440.661C233.007 440.492 232.92 440.338 232.79 440.226C232.66 440.114 232.495 440.051 232.324 440.048C232.152 440.045 231.985 440.102 231.851 440.21Z" fill="white"/>
<path d="M776.494 509.906L793.808 489.287L792.762 509.66L776.596 514.657L776.494 509.906Z" fill="#00034B"/>
<path opacity="0.2" d="M776.494 509.906L793.808 489.287L792.762 509.66L776.596 514.657L776.494 509.906Z" fill="white"/>
<path opacity="0.4" d="M776.993 509.975L793.772 489.999L792.761 509.661L776.985 514.537L776.993 509.975Z" fill="white"/>
<path d="M802.128 516.039L806.732 471.87L796.038 475.175L792.965 519.657L802.128 516.039Z" fill="#00034B"/>
<path opacity="0.2" d="M802.128 516.039L806.732 471.87L796.038 475.175L792.965 519.657L802.128 516.039Z" fill="white"/>
<path opacity="0.4" d="M802.128 516.039L806.693 472.24L796.311 475.449L793.283 519.524L802.128 516.039Z" fill="white"/>
<path d="M802.739 515.696L807.185 471.456L816.342 468.37L812.158 511.248L802.739 515.696Z" fill="#00034B"/>
<path opacity="0.2" d="M802.739 515.696L807.185 471.456L816.342 468.37L812.158 511.248L802.739 515.696Z" fill="white"/>
<path opacity="0.4" d="M802.917 515.607L807.512 471.628L816.32 468.633L812.158 511.248L802.917 515.607Z" fill="white"/>
<path d="M816.799 467.972L825.596 465.048L821.102 506.759L812.643 510.774L816.799 467.972Z" fill="#00034B"/>
<path opacity="0.2" d="M816.799 467.972L825.596 465.048L821.102 506.759L812.643 510.774L816.799 467.972Z" fill="white"/>
<path opacity="0.4" d="M817.027 468.158L825.571 465.244L821.102 506.759L812.836 510.68L817.027 468.158Z" fill="white"/>
<path d="M826.157 464.875L833.848 462.242L829.651 502.699L821.556 506.568L826.157 464.875Z" fill="#00034B"/>
<path opacity="0.2" d="M826.157 464.875L833.848 462.242L829.651 502.699L821.556 506.568L826.157 464.875Z" fill="white"/>
<path opacity="0.4" d="M826.381 464.993L833.84 462.381L829.65 502.699L821.79 506.443L826.381 464.993Z" fill="white"/>
<path d="M768.809 517.201L766.766 558.939L790.097 543.974L791.483 503.703L768.809 517.201Z" fill="#2B30AC"/>
<path opacity="0.2" d="M768.809 517.201L766.766 558.939L790.097 543.974L791.483 503.703L768.809 517.201Z" fill="black"/>
<path d="M726.751 507.383L768.809 517.201L766.766 558.939L724.919 546.597L726.751 507.383Z" fill="#2B30AC"/>
<path opacity="0.05" d="M726.751 507.383L768.809 517.201L766.766 558.939L724.919 546.597L726.751 507.383Z" fill="black"/>
<path d="M726.751 507.383L752.407 497.233L791.483 503.703L768.809 517.201L726.751 507.383Z" fill="#2B30AC"/>
<path opacity="0.4" d="M726.751 507.383L752.407 497.233L791.483 503.703L768.809 517.201L726.751 507.383Z" fill="white"/>
<path d="M767.817 479.457L768.973 479.663L767.538 505.024L766.155 505.024L767.817 479.457Z" fill="#00034B"/>
<path opacity="0.4" d="M767.817 479.457L768.269 479.539L766.615 505.019L766.155 505.024L767.817 479.457Z" fill="white"/>
<path opacity="0.2" d="M768.974 479.663L768.269 479.539L766.615 505.019L767.539 505.023L768.974 479.663Z" fill="white"/>
<path d="M648.084 527.257L648.175 589.769L667.405 580.375L668.321 520.182L648.084 527.257Z" fill="#00034B"/>
<path opacity="0.2" d="M648.084 527.257L648.175 589.769L667.405 580.375L668.321 520.182L648.084 527.257Z" fill="white"/>
<path opacity="0.4" d="M648.497 527.488L648.592 589.572L667.405 580.376L668.305 520.683L648.497 527.488Z" fill="white"/>
<path d="M669.194 519.913L668.543 580.024L686.746 571.341L687.898 513.295L669.194 519.913Z" fill="#00034B"/>
<path opacity="0.2" d="M669.194 519.913L668.543 580.024L686.746 571.341L687.898 513.295L669.194 519.913Z" fill="white"/>
<path opacity="0.4" d="M669.661 520.264L668.971 579.807L686.746 571.341L687.906 513.651L669.661 520.264Z" fill="white"/>
<path d="M688.667 513.074L687.437 570.649L704.119 563.068L705.893 507.255L688.667 513.074Z" fill="#00034B"/>
<path opacity="0.2" d="M688.667 513.074L687.437 570.649L704.119 563.068L705.893 507.255L688.667 513.074Z" fill="white"/>
<path opacity="0.4" d="M688.997 513.314L687.885 570.442L704.119 563.068L705.872 507.74L688.997 513.314Z" fill="white"/>
<path d="M706.455 506.586L704.556 562.66L720.311 555.228L722.245 501.091L706.455 506.586Z" fill="#00034B"/>
<path opacity="0.2" d="M706.455 506.586L704.556 562.66L720.311 555.228L722.245 501.091L706.455 506.586Z" fill="white"/>
<path opacity="0.4" d="M706.743 506.856L704.931 562.492L720.311 555.229L722.232 501.437L706.743 506.856Z" fill="white"/>
<path d="M745.77 523.775L745.552 530.417L721.442 543.471L722.693 515.691L745.77 523.775Z" fill="#00034B"/>
<path opacity="0.2" d="M745.77 523.775L745.552 530.417L721.442 543.471L722.693 515.691L745.77 523.775Z" fill="white"/>
<path opacity="0.4" d="M745.737 524.331L745.552 530.417L721.88 543.232L723.034 516.132L745.737 524.331Z" fill="white"/>
<path d="M792.859 506.164L782.472 559.362C774.961 558.267 769.176 539.716 770.759 527.545C773.593 515.329 785.413 506.108 792.859 506.164Z" fill="#00034B"/>
<g opacity="0.2">
<path d="M783.299 555.076L782.851 557.383C775.018 553.536 770.464 536.978 770.759 527.545C771.796 547.257 783.299 555.076 783.299 555.076Z" fill="black"/>
</g>
<g opacity="0.3">
<path d="M792.859 506.164L782.472 559.362C774.961 558.267 769.176 539.716 770.759 527.545C773.593 515.329 785.413 506.108 792.859 506.164Z" fill="white"/>
</g>
<path opacity="0.2" d="M771.848 525.654C778.918 514.212 785.398 510.758 791.992 510.598L792.406 508.455C784.619 509.837 778.178 513.809 771.848 525.654Z" fill="white"/>
<path d="M776.488 530.112C773.172 544.799 775.436 557.762 781.568 559.145C787.7 560.529 795.353 549.761 798.698 535.167C802.044 520.574 799.75 507.517 793.623 506.149C787.496 504.781 779.824 515.486 776.488 530.112Z" fill="#2B30AC"/>
<path opacity="0.4" d="M776.488 530.112C773.172 544.799 775.436 557.762 781.568 559.145C787.7 560.529 795.353 549.761 798.698 535.167C802.044 520.574 799.75 507.517 793.623 506.149C787.496 504.781 779.824 515.486 776.488 530.112Z" fill="white"/>
<path opacity="0.2" d="M776.375 529.634C775.753 532.518 775.397 535.452 775.31 538.4C775.24 539.531 775.548 540.653 776.183 541.59C776.819 542.528 777.748 543.228 778.824 543.582C781.762 544.245 785.446 539.093 787.051 532.073C788.655 525.053 787.559 518.8 784.617 518.121C782.892 517.732 780.239 519.15 778.919 522.119C777.841 524.54 776.989 527.056 776.375 529.634Z" fill="black"/>
<path d="M790.791 529.807L783.461 529.187L778.518 526.291C777.713 526.844 777.135 527.668 776.891 528.613C776.646 529.558 776.751 530.56 777.187 531.433L782.717 531.534L789.445 535.62L790.791 529.807Z" fill="#00034B"/>
<path opacity="0.2" d="M790.791 529.807L783.461 529.187L778.518 526.291C777.713 526.844 777.135 527.668 776.891 528.613C776.646 529.558 776.751 530.56 777.187 531.433L782.717 531.534L789.445 535.62L790.791 529.807Z" fill="white"/>
<path d="M788.895 532.459C788.529 534.093 788.782 535.517 789.469 535.698C790.157 535.878 790.994 534.663 791.365 533.045C791.736 531.428 791.479 529.987 790.791 529.807C790.103 529.627 789.266 530.842 788.895 532.459Z" fill="#00034B"/>
<path opacity="0.4" d="M788.895 532.459C788.529 534.093 788.782 535.517 789.469 535.698C790.157 535.878 790.994 534.663 791.365 533.045C791.736 531.428 791.479 529.987 790.791 529.807C790.103 529.627 789.266 530.842 788.895 532.459Z" fill="white"/>
<path opacity="0.2" d="M776.94 528.589C776.738 529.562 776.831 530.574 777.206 531.495L782.736 531.596L789.464 535.682C788.696 535.407 788.554 533.401 788.968 532.197C788.968 532.197 786.623 531.573 776.94 528.589Z" fill="black"/>
<path opacity="0.2" d="M790.34 529.895L783.361 529.473L778.222 526.604L778.002 526.775L783.267 529.554L790.02 530.13L790.34 529.895Z" fill="white"/>
<g opacity="0.2">
<path d="M789.265 532.55C788.956 533.926 789.166 535.159 789.736 535.29C790.306 535.422 791.051 534.406 791.374 533.076C791.698 531.747 791.473 530.467 790.898 530.32C790.324 530.173 789.569 531.158 789.265 532.55Z" fill="black"/>
<path opacity="0.4" d="M789.265 532.55C788.956 533.926 789.166 535.159 789.736 535.29C790.306 535.422 791.051 534.406 791.374 533.076C791.698 531.747 791.473 530.467 790.898 530.32C790.324 530.173 789.569 531.158 789.265 532.55Z" fill="black"/>
</g>
<path d="M784.886 554.961L785.352 555.363L800.523 541.128L800.145 540.732L784.886 554.961Z" fill="#00034B"/>
<path opacity="0.1" d="M784.886 554.961L785.352 555.363L800.523 541.128L800.145 540.732L784.886 554.961Z" fill="white"/>
<path d="M797.968 514.626L798.436 514.482L803.772 529.979L803.149 530.172L797.968 514.626Z" fill="#00034B"/>
<path opacity="0.1" d="M797.968 514.626L798.436 514.482L803.772 529.979L803.149 530.172L797.968 514.626Z" fill="white"/>
<path d="M778.182 524.926L803.772 529.979L803.618 530.419L777.902 525.457L778.182 524.926Z" fill="#00034B"/>
<path opacity="0.1" d="M778.182 524.926L803.772 529.979L803.618 530.419L777.902 525.457L778.182 524.926Z" fill="white"/>
<path d="M777.698 526.732L777.927 526.149L800.467 540.393L800.333 540.844L777.698 526.732Z" fill="#00034B"/>
<path opacity="0.1" d="M777.698 526.732L777.927 526.149L800.467 540.393L800.333 540.844L777.698 526.732Z" fill="white"/>
<path d="M799.922 535.37C799.226 538.642 799.688 541.573 801.054 541.851C802.421 542.129 804.166 539.762 804.909 536.476C805.652 533.189 805.143 530.272 803.777 529.994C802.41 529.717 800.681 532.078 799.922 535.37Z" fill="#00034B"/>
<path opacity="0.2" d="M799.922 535.37C799.226 538.642 799.688 541.573 801.054 541.851C802.421 542.129 804.166 539.762 804.909 536.476C805.652 533.189 805.143 530.272 803.777 529.994C802.41 529.717 800.681 532.078 799.922 535.37Z" fill="white"/>
<path opacity="0.1" d="M800.436 535.484C799.762 538.442 800.226 541.048 801.458 541.333C802.69 541.619 804.287 539.435 804.919 536.507C805.551 533.579 805.124 530.927 803.892 530.642C802.659 530.357 801.11 532.526 800.436 535.484Z" fill="black"/>
<path opacity="0.2" d="M745.552 530.417L724.918 546.597L725.164 541.313L745.552 530.417Z" fill="black"/>
<path d="M668.508 208.928C691.435 201.842 704.276 177.511 697.19 154.584C690.104 131.657 665.773 118.815 642.846 125.902C619.919 132.988 607.078 157.319 614.164 180.246C621.25 203.173 645.581 216.014 668.508 208.928Z" fill="#2B30AC"/>
<path opacity="0.4" d="M668.508 208.928C691.435 201.842 704.276 177.511 697.19 154.584C690.104 131.657 665.773 118.815 642.846 125.902C619.919 132.988 607.078 157.319 614.164 180.246C621.25 203.173 645.581 216.014 668.508 208.928Z" fill="white"/>
<path opacity="0.4" d="M668.508 208.928C691.435 201.842 704.276 177.511 697.19 154.584C690.104 131.657 665.773 118.815 642.846 125.902C619.919 132.988 607.078 157.319 614.164 180.246C621.25 203.173 645.581 216.014 668.508 208.928Z" fill="white"/>
<path opacity="0.2" d="M613.02 159.03C613.53 163.995 617.38 164.957 624.378 162.35C640.974 156.187 656.104 146.637 668.807 134.307C671.413 131.025 670.945 128.352 668.85 125.994C693.955 135.773 701.973 156.743 698.28 175.902C697.144 179.802 694.677 183.181 691.309 185.452C681.857 193.014 671.427 199.266 660.301 204.036C650.136 208.885 643.668 210.116 640.409 208.083C617.897 199.62 609.696 178.501 613.02 159.03Z" fill="white"/>
<path opacity="0.2" d="M614.164 180.245C616.591 188.249 621.399 195.323 627.947 200.527C631.093 202.97 638.347 201.411 648.891 196.461C662.76 190.558 675.749 182.774 687.493 173.327C693.902 168.204 697.603 163.047 698.255 157.807C696.462 150.29 692.723 143.376 687.413 137.761C688.547 143.695 686.089 149.664 679.279 155.645C665.612 166.209 650.763 175.149 635.031 182.284C624.973 186.707 617.257 187.214 614.164 180.245Z" fill="white"/>
<path opacity="0.1" d="M627.687 136.035C631.174 133.281 634.932 130.889 638.904 128.896C644.234 126.634 645.474 127.276 645.314 128.913C644.196 131.094 642.679 133.046 640.842 134.668C637.967 137.132 634.724 139.132 631.231 140.593C628.755 141.478 626.108 142.364 624.239 141.678C623.072 140.553 624.873 138.425 627.687 136.035Z" fill="black"/>
<path d="M716.422 126.302C712.374 120.551 698.179 122.975 679.921 131.367C682.255 132.89 684.417 134.661 686.37 136.649C693.264 134.809 698.27 135.038 700.182 137.743C704.881 144.437 688.969 163.735 664.625 180.84C640.281 197.944 616.752 206.412 612.053 199.718C610.045 196.923 611.365 192.297 615.963 185.958C615.885 185.982 616.283 185.5 616.219 185.571C615.088 183.09 614.188 180.51 613.53 177.863C599.026 192.49 591.657 205.339 595.766 211.174C602.217 220.332 634.454 208.763 667.783 185.311C701.112 161.86 722.873 135.46 716.422 126.302Z" fill="#2B30AC"/>
<path opacity="0.3" d="M716.422 126.302C712.374 120.551 698.179 122.975 679.921 131.367C682.255 132.89 684.417 134.661 686.37 136.649C693.264 134.809 698.27 135.038 700.182 137.743C704.881 144.437 688.969 163.735 664.625 180.84C640.281 197.944 616.752 206.412 612.053 199.718C610.045 196.923 611.365 192.297 615.963 185.958C615.885 185.982 616.283 185.5 616.219 185.571C615.088 183.09 614.188 180.51 613.53 177.863C599.026 192.49 591.657 205.339 595.766 211.174C602.217 220.332 634.454 208.763 667.783 185.311C701.112 161.86 722.873 135.46 716.422 126.302Z" fill="white"/>
<path d="M293.07 408.458C309.479 377.369 297.578 338.865 266.489 322.457C235.4 306.048 196.896 317.949 180.487 349.038C164.079 380.127 175.98 418.631 207.069 435.039C238.158 451.448 276.662 439.547 293.07 408.458Z" fill="#2B30AC"/>
<path opacity="0.4" d="M293.07 408.458C309.479 377.369 297.578 338.865 266.489 322.457C235.4 306.048 196.896 317.949 180.487 349.038C164.079 380.127 175.98 418.631 207.069 435.039C238.158 451.448 276.662 439.547 293.07 408.458Z" fill="white"/>
<path opacity="0.2" d="M281.878 369.944L280.554 370.575C280.383 370.66 280.197 370.706 280.007 370.712C279.817 370.717 279.629 370.682 279.454 370.608L276.626 369.416C276.504 369.369 276.379 369.334 276.251 369.309L268.832 368.511C268.581 368.483 268.344 368.385 268.147 368.228L262.838 364.148C262.601 363.959 262.316 363.84 262.015 363.804L259.539 363.476C259.426 363.459 259.311 363.46 259.199 363.479L256.801 363.845C256.468 363.886 256.13 363.85 255.813 363.74L249.812 361.565C249.57 361.481 249.311 361.461 249.06 361.507L245.345 362.142C245.102 362.183 244.875 362.288 244.688 362.448L243.852 363.168C243.711 363.287 243.547 363.377 243.37 363.432C243.193 363.487 243.007 363.505 242.823 363.486L237.96 362.837C237.67 362.791 237.374 362.846 237.12 362.994L233.608 365.002C233.39 365.134 233.218 365.33 233.116 365.564L232.087 367.76C231.999 367.948 231.863 368.11 231.693 368.229C231.523 368.347 231.324 368.419 231.117 368.436L227.797 368.745L220.328 367.842L217.162 365.166C216.922 364.954 216.77 364.66 216.736 364.342L216.404 361.609L216.816 357.417C216.823 357.376 216.818 357.333 216.802 357.294C216.785 357.255 216.759 357.221 216.725 357.196C216.69 357.171 216.65 357.156 216.608 357.153C216.566 357.15 216.523 357.158 216.486 357.178L213.828 358.358C213.66 358.434 213.513 358.548 213.397 358.69C213.281 358.833 213.2 359 213.159 359.179L212.782 360.833C212.738 361.018 212.656 361.193 212.542 361.346C212.427 361.498 212.283 361.626 212.118 361.721L208.605 363.729C208.446 363.827 208.254 363.86 208.071 363.821C207.888 363.783 207.726 363.676 207.619 363.522L206.713 362.248L204.904 360.484C204.744 360.343 204.626 360.161 204.564 359.958C204.501 359.754 204.495 359.537 204.547 359.331L205.575 356.024L205.725 353.912C205.741 353.638 205.847 353.378 206.025 353.17L208.022 350.845C208.226 350.613 208.502 350.455 208.806 350.398L211.261 349.998C211.416 349.974 211.565 349.917 211.698 349.832C211.83 349.747 211.944 349.635 212.03 349.504L212.75 348.461C212.884 348.281 213.065 348.142 213.275 348.06L215.852 347.059C216.063 346.981 216.291 346.957 216.514 346.991L218.135 347.207C218.292 347.232 218.439 347.301 218.559 347.406C218.679 347.511 218.767 347.647 218.813 347.8L219.203 349.063C219.265 349.261 219.402 349.427 219.586 349.524C219.77 349.621 219.984 349.641 220.183 349.58L220.604 349.449C220.738 349.406 220.861 349.336 220.967 349.243C221.073 349.15 221.158 349.036 221.218 348.909C221.278 348.781 221.311 348.643 221.315 348.502C221.32 348.362 221.295 348.221 221.243 348.091L220.781 347.038L219.847 344.901C219.756 344.699 219.731 344.473 219.773 344.255C219.816 344.037 219.925 343.837 220.085 343.684L222.221 341.64L224.403 336.987L225.602 332.91L229.349 330.335C229.507 330.228 229.627 330.073 229.691 329.894C229.755 329.714 229.76 329.519 229.706 329.336L229.08 327.309C229.023 327.13 229.028 326.937 229.095 326.762C229.161 326.586 229.285 326.438 229.447 326.342L231.983 324.824C232.209 324.689 232.381 324.479 232.466 324.231L233.084 322.195C233.106 322.126 233.112 322.052 233.102 321.98C233.091 321.908 233.064 321.839 233.022 321.779C232.98 321.719 232.925 321.67 232.861 321.635C232.797 321.6 232.726 321.58 232.653 321.577L227.081 321.284L222.868 320.639C222.686 320.612 222.5 320.633 222.329 320.701C222.158 320.769 222.008 320.881 221.895 321.025L218.225 325.729C218.095 325.89 217.927 326.015 217.736 326.092C217.544 326.169 217.336 326.196 217.131 326.169L213.267 325.656L210.364 325.272C210.308 325.266 210.254 325.243 210.21 325.207C210.166 325.17 210.133 325.122 210.117 325.067C210.1 325.012 210.099 324.954 210.115 324.899C210.131 324.844 210.162 324.795 210.205 324.758L212.513 323.105C212.616 323.035 212.704 322.944 212.771 322.838L215.358 318.828C206.787 321.978 199.001 326.948 192.535 333.396C191.876 342.249 192.221 351.149 193.562 359.925C193.599 360.127 193.684 360.318 193.808 360.481C193.933 360.644 194.094 360.776 194.28 360.865L206.684 367.073C206.904 367.181 207.155 367.212 207.394 367.16L211.069 366.452C211.252 366.411 211.442 366.417 211.621 366.469L227.888 370.475C228.082 370.518 228.259 370.617 228.397 370.759C228.535 370.902 228.629 371.082 228.665 371.277L231.624 385.545C231.724 386.082 232.007 386.568 232.424 386.92L242.418 395.495C242.549 395.605 242.697 395.692 242.856 395.753L249.225 398.122C249.378 398.18 249.513 398.278 249.615 398.405C249.718 398.533 249.784 398.685 249.807 398.847L251.447 410.671L253.311 429.137C254.377 431.369 256.974 428.995 260.373 424.358L262.528 415.802L265.897 413.053L273.576 402.977L277.982 393.196L279.133 383.994C279.157 383.846 279.198 383.701 279.257 383.563L281.651 378.16L283.335 374.822C283.487 374.517 283.519 374.166 283.424 373.838L282.277 370.128C282.267 370.087 282.249 370.048 282.222 370.015C282.195 369.982 282.161 369.956 282.123 369.938C282.084 369.92 282.042 369.912 282 369.913C281.958 369.914 281.916 369.924 281.878 369.944Z" fill="black"/>
<path d="M249.071 322.48L248.993 322.504C248.991 322.471 248.981 322.439 248.964 322.41L249.071 322.48Z" fill="white"/>
<path d="M532.23 406.869C538.141 407.979 591.414 440.323 587.424 464.765C584.447 482.763 537.973 505.069 537.973 505.069L527.861 493.627C527.861 493.627 559.626 469.976 560.02 463.791C560.414 457.607 511.228 440.531 511.228 440.531L532.23 406.869Z" fill="#2B30AC"/>
<path opacity="0.3" d="M532.23 406.869C538.141 407.979 591.414 440.323 587.424 464.765C584.447 482.763 537.973 505.069 537.973 505.069L527.861 493.627C527.861 493.627 559.626 469.976 560.02 463.791C560.414 457.607 511.228 440.531 511.228 440.531L532.23 406.869Z" fill="white"/>
<path opacity="0.2" d="M548.068 477.339C548.389 482.91 545.913 488.047 539.001 492.54L546.603 500.557L545.699 501.059L533.877 489.001L548.068 477.339Z" fill="black"/>
<path d="M531.517 486.502L548.058 503.386L529.544 514.044C529.278 514.191 529.046 514.391 528.863 514.632C528.679 514.874 528.548 515.151 528.479 515.446C528.409 515.741 528.402 516.048 528.458 516.346C528.514 516.644 528.632 516.927 528.804 517.176L533.433 523.755C533.832 524.348 534.025 525.055 533.984 525.768C533.942 526.482 533.667 527.161 533.202 527.703L531.932 529.12C531.547 529.545 531.014 529.806 530.443 529.85C529.871 529.893 529.305 529.715 528.861 529.352L503.71 508.759C503.552 508.63 503.425 508.465 503.34 508.279C503.255 508.092 503.214 507.889 503.22 507.684C503.226 507.479 503.279 507.278 503.374 507.097C503.47 506.916 503.606 506.76 503.772 506.639L531.517 486.502Z" fill="#2B30AC"/>
<g opacity="0.2">
<path d="M531.517 486.502L548.058 503.386L529.544 514.044C529.278 514.191 529.046 514.391 528.863 514.632C528.679 514.874 528.548 515.151 528.479 515.446C528.409 515.741 528.402 516.048 528.458 516.346C528.514 516.644 528.632 516.927 528.804 517.176L533.433 523.755C533.832 524.348 534.025 525.055 533.984 525.768C533.942 526.482 533.667 527.161 533.202 527.703L531.932 529.12C531.547 529.545 531.014 529.806 530.443 529.85C529.871 529.893 529.305 529.715 528.861 529.352L503.71 508.759C503.552 508.63 503.425 508.465 503.34 508.279C503.255 508.092 503.214 507.889 503.22 507.684C503.226 507.479 503.279 507.278 503.374 507.097C503.47 506.916 503.606 506.76 503.772 506.639L531.517 486.502Z" fill="white"/>
</g>
<path opacity="0.2" d="M515.08 498.414C522.973 498.012 530.73 496.193 537.979 493.044L531.493 486.425L515.08 498.414Z" fill="black"/>
<path opacity="0.2" d="M544.503 453.593L548.701 455.574C548.313 442.493 538.73 432.817 531.979 418.047L529.346 419.749C535.654 430.425 540.739 441.777 544.503 453.593Z" fill="black"/>
<path d="M482.538 563.532L457.587 583.147L439.417 543.147L463.92 523.295L482.538 563.532Z" fill="#2B30AC"/>
<path opacity="0.2" d="M482.538 563.532L457.587 583.147L439.417 543.147L463.92 523.295L482.538 563.532Z" fill="black"/>
<path d="M452.062 528.139C458.25 488.432 467.464 458.345 483.465 449.779L600.934 372.826C630.416 358.59 661.144 359.101 693.234 375.346C700.644 415.512 688.116 441.671 664.094 459.65L541.578 535.908C530.338 542.695 502.433 541.039 452.062 528.139Z" fill="#2B30AC"/>
<path d="M417.404 543.479L456.208 508.071C470.496 512.194 475.353 523.433 474.507 533.736L433.115 563.147C421.395 560.314 417.364 554.455 417.404 543.479Z" fill="#2B30AC"/>
<path d="M382.391 543.029L364.341 550.436C358.778 552.717 354.107 556.744 351.031 561.91L309.683 631.525L389.37 614.12C393.654 613.189 397.656 611.255 401.049 608.478L414.042 597.802C417.568 594.907 420.325 591.187 422.069 586.972C423.814 582.756 424.492 578.176 424.043 573.636L423.74 570.553C423.264 565.855 421.598 561.356 418.897 557.483L415.59 552.749C413.498 549.746 410.832 547.186 407.746 545.217C404.001 542.856 399.745 541.425 395.334 541.044C390.923 540.663 386.485 541.344 382.391 543.029Z" fill="#2B30AC"/>
<path opacity="0.19" d="M382.391 543.029L364.341 550.436C358.778 552.717 354.107 556.744 351.031 561.91L309.683 631.525L389.37 614.12C393.654 613.189 397.656 611.255 401.049 608.478L414.042 597.802C417.568 594.907 420.325 591.187 422.069 586.972C423.814 582.756 424.492 578.176 424.043 573.636L423.74 570.553C423.264 565.855 421.598 561.356 418.897 557.483L415.59 552.749C413.498 549.746 410.832 547.186 407.746 545.217C404.001 542.856 399.745 541.425 395.334 541.044C390.923 540.663 386.485 541.344 382.391 543.029Z" fill="white"/>
<path opacity="0.29" d="M398.059 552.668L388.862 556.45C386.046 557.613 383.682 559.656 382.122 562.273L361.06 597.731L401.66 588.905C403.839 588.427 405.875 587.441 407.601 586.027L414.214 580.568C416.01 579.092 417.414 577.196 418.302 575.048C419.19 572.899 419.535 570.565 419.305 568.252L419.143 566.679C418.908 564.289 418.065 561.998 416.694 560.025L415.008 557.608C413.939 556.061 412.574 554.741 410.99 553.727C409.077 552.528 406.904 551.806 404.654 551.622C402.403 551.437 400.142 551.796 398.059 552.668Z" fill="white"/>
<path d="M403.456 557.2L397.696 559.561C395.928 560.294 394.444 561.58 393.466 563.225L380.303 585.396L405.683 579.875C407.049 579.572 408.326 578.955 409.412 578.073L413.492 574.694C414.612 573.769 415.488 572.581 416.04 571.237C416.593 569.893 416.806 568.433 416.66 566.986L416.562 566.009C416.41 564.517 415.88 563.088 415.023 561.857L413.972 560.337C413.32 559.384 412.488 558.568 411.522 557.935C410.333 557.179 408.981 556.717 407.578 556.59C406.175 556.462 404.762 556.671 403.456 557.2Z" fill="#2B30AC"/>
<path opacity="0.1" d="M452.062 528.139C458.251 488.432 467.464 458.345 484.403 449.164L601.797 372.303C630.339 358.614 661.085 359.187 693.175 375.432C700.586 415.598 688.058 441.757 664.035 459.736L541.52 535.994C530.338 542.695 502.433 541.039 452.062 528.139Z" fill="black"/>
<path d="M417.404 543.479L456.208 508.071C457.203 521.511 466.604 529.604 474.507 533.736L433.115 563.147C421.395 560.314 417.364 554.455 417.404 543.479Z" fill="#2B30AC"/>
<path d="M431.877 615.225L470.139 585.245L461.83 530.516L433.223 553.054L431.877 615.225Z" fill="#2B30AC"/>
<path opacity="0.3" d="M431.877 615.225L470.139 585.245L461.83 530.516L433.223 553.054L431.877 615.225Z" fill="white"/>
<path d="M362.118 523.131L404.956 494.145L454.057 516.25L421.499 543.135L362.118 523.131Z" fill="#2B30AC"/>
<path opacity="0.3" d="M362.118 523.131L404.956 494.145L454.057 516.25L421.499 543.135L362.118 523.131Z" fill="white"/>
<path opacity="0.7" d="M582.951 384.651L588.889 380.767C587.111 382.999 585.835 385.588 585.15 388.359C584.465 391.129 584.386 394.014 584.918 396.818C588.506 428.704 604.522 453.947 630.949 471.926C635.059 474.174 640.402 473.393 644.67 471.784L639.542 474.974C633.77 477.185 630.439 476.08 626.062 474.017C601.191 461.569 581.419 427.547 579.826 398.853C579.095 392.179 580.479 386.269 582.951 384.651Z" fill="white"/>
<path opacity="0.7" d="M569.415 393.515L575.096 389.795C571.667 392.733 570.282 400.078 571.106 405.783C574.709 437.665 590.662 462.535 617.137 480.892C620.738 483.04 626.379 482.117 630.682 480.513L625.31 483.796C619.538 486.007 616.532 485.399 612.291 483.004C587.42 470.556 567.633 436.539 566.039 407.845C565.033 401.273 567.724 394.618 569.415 393.515Z" fill="white"/>
<path d="M688.204 374.765C688.001 378.363 689.308 380.657 692.758 381.043L729.234 356.448C734.501 352.105 736.244 349.841 727.616 353.754L688.204 374.765Z" fill="#2B30AC"/>
<path opacity="0.3" d="M688.204 374.765C688.001 378.363 689.308 380.657 692.758 381.043L729.234 356.448C734.501 352.105 736.244 349.841 727.616 353.754L688.204 374.765Z" fill="black"/>
<path opacity="0.2" d="M469.416 530.58C498.137 531.949 531.083 535.548 542.267 528.027L663.083 452.345C679.638 444.41 685.154 405.731 690.501 380.374C682.629 404.633 677.516 438.372 658.202 448.986L540.697 522.945C527.321 532.493 495.282 529.451 469.416 530.58Z" fill="black"/>
<path opacity="0.4" d="M589.911 384.02C587.957 386.671 587.077 389.963 587.448 393.235L607.403 380.441C626.582 369.612 667.033 371.967 688.493 377.579C668.626 368.554 624.759 363.771 607.184 374.207L589.911 384.02Z" fill="white"/>
<path opacity="0.3" d="M689.537 379.631L691.837 380.884L733.371 352.591L689.537 379.631Z" fill="black"/>
<path opacity="0.2" d="M524.345 423.019L542.438 485.535L498.628 499.332C524.219 501.071 547.84 496.657 551.037 485.951C556.01 465.628 548.264 442.166 533.201 417.191L524.345 423.019Z" fill="black"/>
<path opacity="0.2" d="M534.766 419.713L566.554 399.232C565.77 401.342 565.522 403.613 565.83 405.842L537.389 424.333L534.766 419.713Z" fill="#E6E6E6"/>
<path opacity="0.2" d="M499.433 444.638L483.541 455.715C480.032 458.945 477.171 462.815 475.11 467.116L468.986 481.118L475.992 480.523L481.059 468.847C482.602 465.308 484.856 462.124 487.68 459.491L502.655 448.322L499.433 444.638Z" fill="#E0E0E0"/>
<path d="M439.772 371.402L469.054 382.265L508.703 375.339L515.449 313.344L499.562 301.449L443.32 299.005C436.182 321.056 437.19 345.422 439.772 371.402Z" fill="#2B30AC"/>
<path opacity="0.2" d="M439.772 371.402L469.054 382.265L508.703 375.339L515.449 313.344L499.562 301.449L443.32 299.005C437.213 318.312 436.354 342.828 439.772 371.402Z" fill="white"/>
<path opacity="0.3" d="M439.772 371.402L469.049 382.249L474.835 314.164C465.513 312.075 455.048 307.113 443.32 299.005C437.424 315.07 436.506 339.673 439.772 371.402Z" fill="black"/>
<path d="M522.58 409.903C527.236 413.587 558.869 467.528 543.8 487.18C532.722 501.62 481.168 499.315 481.168 499.315L477.65 484.451C477.65 484.451 516.841 478.64 520.116 473.375C523.39 468.111 492.136 438.987 488.121 429.81C484.106 420.633 522.58 409.903 522.58 409.903Z" fill="#2B30AC"/>
<path opacity="0.3" d="M522.58 409.903C527.236 413.587 558.869 467.528 543.8 487.18C532.722 501.62 481.168 499.315 481.168 499.315L477.65 484.451C477.65 484.451 516.841 478.64 520.116 473.375C523.39 468.111 492.136 438.987 488.121 429.81C484.106 420.633 522.58 409.903 522.58 409.903Z" fill="white"/>
<path d="M493.796 478.948L499.324 501.917L477.955 501.571C477.651 501.568 477.35 501.628 477.071 501.749C476.792 501.871 476.542 502.049 476.337 502.274C476.132 502.499 475.977 502.764 475.883 503.053C475.788 503.341 475.755 503.647 475.787 503.949L476.385 511.962C476.422 512.677 476.224 513.384 475.82 513.974C475.416 514.565 474.83 515.007 474.15 515.231L472.342 515.79C471.794 515.96 471.202 515.913 470.688 515.659C470.174 515.405 469.777 514.963 469.58 514.424L458.553 483.83C458.482 483.636 458.457 483.428 458.481 483.223C458.504 483.018 458.574 482.821 458.685 482.648C458.797 482.474 458.948 482.329 459.125 482.223C459.302 482.118 459.501 482.054 459.707 482.038L493.796 478.948Z" fill="#2B30AC"/>
<path d="M528.997 310.762C528.997 310.762 546.82 343.286 553.821 348.756C560.823 354.226 592.821 369.953 592.821 369.953L592.728 377.94C592.728 377.94 548.157 365.57 544.564 363.008C540.972 360.447 513.551 333.229 513.551 333.229L528.997 310.762Z" fill="#2B30AC"/>
<path d="M528.95 268.286C528.95 268.286 529.973 278.78 523.005 283.308C516.036 287.835 517.261 264.282 517.261 264.282L523.715 260.409L528.95 268.286Z" fill="#00034B"/>
<path d="M535.425 292.523C542.912 278.338 537.482 260.769 523.296 253.281C509.11 245.794 491.541 251.225 484.054 265.41C476.567 279.596 481.997 297.165 496.183 304.652C510.369 312.139 527.938 306.709 535.425 292.523Z" fill="#00034B"/>
<path opacity="0.2" d="M535.425 292.523C542.912 278.338 537.482 260.769 523.296 253.281C509.11 245.794 491.541 251.225 484.054 265.41C476.567 279.596 481.997 297.165 496.183 304.652C510.369 312.139 527.938 306.709 535.425 292.523Z" fill="white"/>
<path opacity="0.7" d="M523.234 298.249C528.664 295.288 532.751 290.357 534.653 284.472L532.127 283.87C529.558 289.163 525.837 293.814 521.238 297.482L523.234 298.249Z" fill="white"/>
<path opacity="0.7" d="M534.933 282.78L532.396 282.42C532.728 281.688 532.862 280.881 532.783 280.08L535.184 280.5C535.353 281.267 535.265 282.068 534.933 282.78Z" fill="white"/>
<path d="M495.433 305.936C495.642 312.139 514.59 315.095 518.59 307.591C514.744 306.201 513.173 303.988 512.82 301.467C512.658 299.922 512.808 298.36 513.262 296.873C513.479 296.034 513.749 295.209 514.07 294.404L502.564 282.043C503.09 288.882 504.309 304.32 495.433 305.936Z" fill="#C59780"/>
<path opacity="0.2" d="M504.477 288.898C503.562 296.985 509.741 300.404 512.82 301.467C512.657 299.922 512.808 298.36 513.261 296.873L504.477 288.898Z" fill="black"/>
<path d="M503.003 292.359C504.292 294.523 506.261 296.199 508.602 297.128C510.943 298.057 513.525 298.186 515.947 297.495C519.106 296.676 521.831 294.678 523.564 291.913C523.809 291.535 524.03 291.142 524.224 290.736C527.931 283.169 529.678 269.701 521.753 264.175C520.012 262.946 517.985 262.184 515.866 261.963C513.746 261.742 511.606 262.069 509.648 262.912C507.691 263.755 505.983 265.086 504.688 266.779C503.393 268.471 502.554 270.467 502.251 272.576C500.788 281.602 499.517 286.828 503.003 292.359Z" fill="#C59780"/>
<path d="M515.187 278.073C515.119 278.21 515.08 278.359 515.071 278.512C515.062 278.664 515.085 278.817 515.137 278.961C515.19 279.104 515.271 279.236 515.376 279.347C515.48 279.458 515.607 279.547 515.747 279.608C516.24 279.711 516.776 279.29 516.902 278.482C517.028 277.675 516.814 277.092 516.327 276.952C515.84 276.812 515.368 277.385 515.187 278.073Z" fill="#00034B"/>
<path d="M523.372 279.966C523.246 280.245 523.236 280.563 523.344 280.85C523.452 281.137 523.669 281.369 523.948 281.496C524.42 281.589 524.932 281.089 525.103 280.371C525.273 279.652 525.01 278.965 524.527 278.841C524.045 278.717 523.532 279.268 523.372 279.966Z" fill="#00034B"/>
<path d="M520.718 279.779C521.075 282.185 521.771 284.529 522.784 286.74C522.208 286.985 521.584 287.101 520.958 287.079C520.331 287.057 519.717 286.898 519.159 286.614L520.718 279.779Z" fill="#DE5753"/>
<path d="M513.254 274.913C513.332 274.931 513.414 274.928 513.49 274.904C513.567 274.881 513.636 274.837 513.69 274.778C514.098 274.417 514.584 274.156 515.111 274.017C515.637 273.878 516.189 273.865 516.722 273.978C516.825 273.992 516.93 273.968 517.018 273.912C517.106 273.856 517.171 273.77 517.201 273.671C517.232 273.571 517.226 273.464 517.185 273.368C517.144 273.272 517.071 273.194 516.978 273.148C516.305 272.988 515.604 272.993 514.934 273.161C514.264 273.33 513.644 273.657 513.127 274.116C513.037 274.189 512.979 274.295 512.967 274.411C512.955 274.527 512.989 274.643 513.062 274.734C513.114 274.805 513.179 274.866 513.254 274.913Z" fill="#00034B"/>
<path d="M517.128 290.043C516.057 289.97 515.021 289.641 514.105 289.082C513.189 288.524 512.421 287.753 511.867 286.835C511.839 286.779 511.835 286.713 511.854 286.653C511.874 286.593 511.916 286.542 511.972 286.513C512.025 286.486 512.086 286.481 512.142 286.499C512.199 286.516 512.246 286.555 512.274 286.607C512.801 287.446 513.514 288.153 514.359 288.671C515.203 289.189 516.156 289.505 517.143 289.594C517.171 289.595 517.199 289.601 517.225 289.613C517.252 289.625 517.275 289.642 517.294 289.663C517.314 289.684 517.328 289.709 517.338 289.736C517.347 289.763 517.351 289.792 517.349 289.82C517.345 289.88 517.317 289.936 517.272 289.976C517.226 290.015 517.167 290.036 517.107 290.032L517.128 290.043Z" fill="#00034B"/>
<path d="M527.525 277.932C527.595 277.98 527.681 278.002 527.766 277.994C527.823 277.983 527.877 277.962 527.924 277.93C527.972 277.898 528.013 277.857 528.045 277.809C528.076 277.761 528.097 277.707 528.107 277.65C528.117 277.594 528.116 277.536 528.103 277.48C527.957 276.804 527.651 276.173 527.209 275.641C526.768 275.108 526.206 274.69 525.569 274.42C525.516 274.4 525.459 274.391 525.402 274.392C525.346 274.394 525.29 274.408 525.238 274.432C525.187 274.455 525.14 274.489 525.102 274.532C525.064 274.574 525.035 274.623 525.016 274.677C524.982 274.785 524.991 274.903 525.041 275.005C525.092 275.108 525.181 275.186 525.288 275.225C525.781 275.459 526.214 275.803 526.554 276.231C526.894 276.659 527.13 277.159 527.246 277.693C527.274 277.75 527.313 277.801 527.361 277.842C527.409 277.883 527.465 277.913 527.525 277.932Z" fill="#00034B"/>
<path d="M498.658 278.742C497.992 270.511 499.012 264.03 501.376 261.899C503.74 259.768 513.488 267.105 513.488 267.105C512.96 266.872 512.38 266.783 511.806 266.848C511.233 266.913 510.687 267.128 510.224 267.473C509.761 267.817 509.398 268.278 509.171 268.809C508.945 269.339 508.863 269.921 508.934 270.493C509.635 274.034 506.84 278.86 503.925 280.478C503.925 280.478 504.107 279.021 502.819 279.112C501.532 279.202 500.57 286.809 502.32 290.811C502.329 290.842 499.261 286.992 498.658 278.742Z" fill="#00034B"/>
<path d="M496.798 279.026C497.336 281.256 498.735 283.182 500.69 284.381C503.278 285.955 505.404 283.829 505.365 280.938C505.307 278.377 503.924 274.399 500.975 274.029C500.331 273.947 499.678 274.029 499.074 274.266C498.47 274.503 497.936 274.888 497.52 275.385C497.104 275.883 496.82 276.477 496.694 277.114C496.567 277.75 496.603 278.408 496.798 279.026Z" fill="#C59780"/>
<path d="M500.122 266.351C500.122 266.351 503.573 258.453 514.324 256.053C527.486 253.163 531.269 271.48 529.323 272.918C527.71 273.724 526.621 265.504 525.024 266.801C523.944 268.279 524.199 269.105 522.691 269.418C521.864 269.673 520.314 268.137 518.729 266.492C516.195 265.089 513.775 272.84 510.926 275.172C507.709 275.261 503.303 269.791 500.122 266.351Z" fill="#00034B"/>
<path d="M471.575 391.528C475.229 406.555 482.892 424.663 490.953 434.331L529.382 419.755L541.913 411.51C538.502 409.644 528.252 397.424 525.471 374.17L471.575 391.528Z" fill="#2B30AC"/>
<g opacity="0.3">
<path d="M471.575 391.528C475.229 406.555 482.892 424.663 490.953 434.331L529.382 419.755L541.913 411.51C538.05 409.288 528.491 397.368 525.471 374.17L471.575 391.528Z" fill="white"/>
</g>
<path opacity="0.2" d="M529.382 419.755L529.231 411.587L538.326 413.882L529.382 419.755Z" fill="black"/>
<path d="M502.651 282.989L503.28 286.791C503.473 287.968 503.968 289.074 504.716 290.002L505.129 290.507C505.88 291.436 506.861 292.154 507.975 292.589C509.088 293.023 510.296 293.159 511.479 292.984L513.944 292.615L514.286 293.722L510.985 294.093C509.852 294.216 508.707 294.056 507.651 293.629C506.595 293.201 505.661 292.519 504.933 291.643L503.978 290.486C503.122 289.448 502.589 288.183 502.443 286.845L502.017 282.98L502.651 282.989Z" fill="#00034B"/>
<path opacity="0.2" d="M502.651 282.989L503.28 286.791C503.473 287.968 503.968 289.074 504.716 290.002L505.129 290.507C505.88 291.436 506.861 292.154 507.975 292.589C509.088 293.023 510.296 293.159 511.479 292.984L513.944 292.615L514.286 293.722L510.985 294.093C509.852 294.216 508.707 294.056 507.651 293.629C506.595 293.201 505.661 292.519 504.933 291.643L503.978 290.486C503.122 289.448 502.589 288.183 502.443 286.845L502.017 282.98L502.651 282.989Z" fill="white"/>
<path d="M515.534 291.406L513.866 291.922C513.367 292.076 513.087 292.606 513.241 293.105L513.588 294.228C513.743 294.727 514.273 295.007 514.772 294.852L516.44 294.337C516.939 294.183 517.219 293.653 517.065 293.153L516.718 292.031C516.563 291.532 516.033 291.252 515.534 291.406Z" fill="#00034B"/>
<path d="M501.564 277.98L500.333 278.361C499.79 278.528 499.486 279.104 499.654 279.646L500.709 283.06C500.877 283.603 501.453 283.906 501.995 283.739L503.227 283.358C503.769 283.19 504.073 282.615 503.905 282.072L502.85 278.658C502.682 278.116 502.107 277.812 501.564 277.98Z" fill="#00034B"/>
<path opacity="0.15" d="M528.997 310.762C528.997 310.762 546.82 343.286 553.821 348.756C560.823 354.226 594.256 370.671 594.256 370.671L591.55 377.553C591.55 377.553 548.188 365.56 544.605 363.03C541.022 360.499 513.551 333.229 513.551 333.229L528.997 310.762Z" fill="white"/>
<path opacity="0.2" d="M524.389 339.118L535.423 354.596L524.24 343.775L524.389 339.118Z" fill="black"/>
<path d="M472.716 396.214L527.252 383.081C527.252 383.081 518.392 332.313 530.702 311.362L519.654 306.836L493.765 305.957C493.765 305.957 481.723 309.32 475.17 312.985C473.825 316.329 472.718 319.764 471.858 323.265C470.117 330.082 468.929 337.029 468.305 344.037C466.75 361.553 468.242 379.207 472.716 396.214Z" fill="#2B30AC"/>
<path opacity="0.2" d="M526.894 380.817L505.988 373.957C501.945 371.928 486.795 353.743 476.005 341.93L526.152 374.659L526.894 380.817Z" fill="black"/>
<path opacity="0.2" d="M485.34 308.646L487.304 308.038L525.797 309.36L527.612 310.096C527.529 311.368 526.953 312.557 526.007 313.41L524.295 314.999C510.107 314.294 496.85 313.507 485.34 308.646Z" fill="#00034B"/>
<path d="M491.446 318.952C491.446 318.952 511.558 349.71 518.56 355.18C525.561 360.649 568.245 382.603 568.245 382.603L564.833 390.13C564.833 390.13 512.31 374.411 508.717 371.85C505.125 369.288 476.558 342.835 476.558 342.835C467.324 330.643 478.787 303.635 491.446 318.952Z" fill="#2B30AC"/>
<path opacity="0.15" d="M491.446 318.952C491.446 318.952 511.558 349.71 518.56 355.18C525.561 360.649 568.245 382.603 568.245 382.603L564.833 390.13C564.833 390.13 512.31 374.411 508.717 371.85C505.125 369.288 476.558 342.835 476.558 342.835C467.324 330.643 478.787 303.635 491.446 318.952Z" fill="white"/>
<path d="M480.224 338.286L486.033 344.483C485.78 338.14 487.507 333.781 491.386 331.523L484.662 324.465C481.434 328.315 479.841 333.276 480.224 338.286Z" fill="#2B30AC"/>
<g opacity="0.2">
<path d="M493.796 478.948L499.324 501.917L477.955 501.571C477.651 501.568 477.35 501.628 477.071 501.749C476.792 501.871 476.542 502.049 476.337 502.274C476.132 502.499 475.977 502.764 475.883 503.053C475.788 503.341 475.755 503.647 475.787 503.949L476.385 511.962C476.422 512.677 476.224 513.384 475.82 513.974C475.416 514.565 474.83 515.007 474.15 515.231L472.342 515.79C471.794 515.96 471.202 515.913 470.688 515.659C470.174 515.405 469.777 514.963 469.58 514.424L458.553 483.83C458.482 483.636 458.457 483.428 458.481 483.223C458.504 483.018 458.574 482.821 458.685 482.648C458.797 482.474 458.948 482.329 459.125 482.223C459.302 482.118 459.501 482.054 459.707 482.038L493.796 478.948Z" fill="white"/>
</g>
<path d="M553.763 371.83L544.823 389.041L565.667 391.667L572.839 399.953C572.974 400.108 573.145 400.228 573.337 400.303C573.529 400.378 573.736 400.405 573.94 400.382C574.145 400.359 574.34 400.287 574.511 400.172C574.681 400.056 574.821 399.902 574.919 399.72L581.242 387.963C581.322 387.817 581.371 387.656 581.384 387.489C581.397 387.323 581.374 387.155 581.318 386.998C581.261 386.841 581.172 386.698 581.055 386.578C580.939 386.459 580.799 386.365 580.643 386.304L569.965 381.868L553.763 371.83Z" fill="#2B30AC"/>
<path opacity="0.3" d="M553.763 371.83L544.823 389.041L565.667 391.667L572.839 399.953C572.974 400.108 573.145 400.228 573.337 400.303C573.529 400.378 573.736 400.405 573.94 400.382C574.145 400.359 574.34 400.287 574.511 400.172C574.681 400.056 574.821 399.902 574.919 399.72L581.242 387.963C581.322 387.817 581.371 387.656 581.384 387.489C581.397 387.323 581.374 387.155 581.318 386.998C581.261 386.841 581.172 386.698 581.055 386.578C580.939 386.459 580.799 386.365 580.643 386.304L569.965 381.868L553.763 371.83Z" fill="white"/>
<path d="M569.643 377.014L578.219 358.567L593.915 368.351L603.093 369.921C603.222 369.945 603.346 369.995 603.455 370.068C603.564 370.142 603.657 370.237 603.728 370.348C603.8 370.459 603.847 370.583 603.868 370.713C603.889 370.843 603.884 370.976 603.851 371.104L603.749 371.545L591.34 379.138L590.017 378.283L569.643 377.014Z" fill="#2B30AC"/>
<g opacity="0.3">
<path d="M569.643 377.014L578.219 358.567L593.915 368.351L603.093 369.921C603.222 369.945 603.346 369.995 603.455 370.068C603.564 370.142 603.657 370.237 603.728 370.348C603.8 370.459 603.847 370.583 603.868 370.713C603.889 370.843 603.884 370.976 603.851 371.104L603.749 371.545L591.34 379.138L590.017 378.283L569.643 377.014Z" fill="white"/>
</g>
<path d="M537.491 270.393C536.213 266.239 534.019 262.424 531.071 259.23C528.122 256.036 524.494 253.545 520.455 251.94C516.415 250.335 512.067 249.658 507.73 249.957C503.394 250.257 499.18 251.526 495.4 253.67C491.619 255.815 488.368 258.782 485.886 262.35C483.405 265.919 481.756 269.999 481.061 274.29C480.367 278.581 480.644 282.973 481.873 287.142C483.102 291.312 485.251 295.152 488.161 298.38L486.76 297.823C484.56 300.211 483.971 303.279 485.294 307.225C497.766 311.698 510.978 313.748 524.219 313.263C525.091 311.878 525.671 310.33 525.923 308.713C526.175 307.096 526.094 305.445 525.685 303.861L524.439 303.973C530.076 300.661 534.432 295.545 536.801 289.451C539.169 283.357 539.413 276.642 537.491 270.393ZM521.244 300.708C517.257 301.94 512.995 301.962 508.995 300.772C504.996 299.581 501.44 297.232 498.776 294.02C496.112 290.809 494.46 286.879 494.029 282.729C493.598 278.579 494.408 274.394 496.356 270.704C498.303 267.014 501.302 263.984 504.971 261.997C508.641 260.011 512.817 259.158 516.972 259.545C521.126 259.932 525.073 261.543 528.312 264.173C531.551 266.803 533.938 270.335 535.17 274.321C536.824 279.656 536.292 285.429 533.693 290.373C531.094 295.317 526.638 299.027 521.306 300.688L521.244 300.708Z" fill="#2B30AC"/>
<path opacity="0.3" d="M537.491 270.393C536.213 266.239 534.019 262.424 531.071 259.23C528.122 256.036 524.494 253.545 520.455 251.94C516.415 250.335 512.067 249.658 507.73 249.957C503.394 250.257 499.18 251.526 495.4 253.67C491.619 255.815 488.368 258.782 485.886 262.35C483.405 265.919 481.756 269.999 481.061 274.29C480.367 278.581 480.644 282.973 481.873 287.142C483.102 291.312 485.251 295.152 488.161 298.38L486.76 297.823C484.56 300.211 483.971 303.279 485.294 307.225C497.766 311.698 510.978 313.748 524.219 313.263C525.091 311.878 525.671 310.33 525.923 308.713C526.175 307.096 526.094 305.445 525.685 303.861L524.439 303.973C530.076 300.661 534.432 295.545 536.801 289.451C539.169 283.357 539.413 276.642 537.491 270.393ZM521.244 300.708C517.257 301.94 512.995 301.962 508.995 300.772C504.996 299.581 501.44 297.232 498.776 294.02C496.112 290.809 494.46 286.879 494.029 282.729C493.598 278.579 494.408 274.394 496.356 270.704C498.303 267.014 501.302 263.984 504.971 261.997C508.641 260.011 512.817 259.158 516.972 259.545C521.126 259.932 525.073 261.543 528.312 264.173C531.551 266.803 533.938 270.335 535.17 274.321C536.824 279.656 536.292 285.429 533.693 290.373C531.094 295.317 526.638 299.027 521.306 300.688L521.244 300.708Z" fill="white"/>
<path opacity="0.2" d="M489.498 298.617L499.562 301.449C491.929 298.856 486.316 293.35 482.85 284.567C483.657 289.796 485.967 294.677 489.498 298.617Z" fill="black"/>
<path opacity="0.2" d="M509.198 252.839C513.743 252.698 518.26 253.606 522.397 255.494C526.535 257.381 530.182 260.196 533.055 263.721C530.554 260.301 527.384 257.424 523.737 255.267C520.09 253.109 516.043 251.714 511.841 251.168L509.198 252.839Z" fill="white"/>
<path opacity="0.2" d="M509.986 251.023L507.564 252.967L505.029 253.273L505.069 251.194C506.671 250.741 508.358 250.683 509.986 251.023Z" fill="white"/>
<path opacity="0.2" d="M494.41 481.543L498.588 499.259L499.652 499.221L495.566 481.305L494.41 481.543Z" fill="#00034B"/>
</svg>
