<svg width="17" height="15" viewBox="0 0 17 15" fill="none" xmlns="http://www.w3.org/2000/svg">
<path d="M14.8733 4.3879C14.8835 4.53987 14.8835 4.69183 14.8835 4.84523C14.8835 9.51779 11.4675 14.9067 5.22137 14.9067V14.9038C3.37614 14.9066 1.56913 14.3563 0.0161133 13.3186C0.284436 13.3522 0.554046 13.369 0.824391 13.3696C2.35374 13.3709 3.83909 12.8367 5.04178 11.853C4.33318 11.839 3.64647 11.5948 3.07767 11.1545C2.50888 10.7143 2.08642 10.0999 1.86936 9.39733C2.37812 9.49949 2.90261 9.47865 3.40242 9.33643C1.81823 9.00311 0.67846 7.55367 0.67846 5.87029V5.82548C1.15073 6.0994 1.67927 6.25118 2.21961 6.26806C0.727563 5.22959 0.267608 3.16253 1.16858 1.54637C2.02111 2.63884 3.0848 3.53233 4.29056 4.16882C5.49631 4.8053 6.81716 5.17054 8.1673 5.2408C8.03269 4.63738 8.05257 4.00774 8.22496 3.41485C8.39736 2.82195 8.71621 2.28657 9.14965 1.86227C10.5174 0.523418 12.6685 0.592074 13.9542 2.01557C14.7146 1.85922 15.4439 1.56891 16.1106 1.15713C15.8571 1.97589 15.3266 2.67089 14.6178 3.11283C15.291 3.03024 15.9484 2.8426 16.5679 2.5562C16.1122 3.2669 15.5383 3.88712 14.8733 4.3879Z" fill="#FF0099"/>
</svg>
