<svg width="61" height="61" viewBox="0 0 61 61" fill="none" xmlns="http://www.w3.org/2000/svg">
<path d="M19.6071 61H6.53571C2.92746 61 0 58.0725 0 54.4643V6.53571C0 2.92746 2.92746 0 6.53571 0H19.6071C23.2154 0 26.1429 2.92746 26.1429 6.53571V54.4643C26.1429 58.0725 23.2154 61 19.6071 61ZM61 54.4643V6.53571C61 2.92746 58.0725 0 54.4643 0H41.3929C37.7846 0 34.8571 2.92746 34.8571 6.53571V54.4643C34.8571 58.0725 37.7846 61 41.3929 61H54.4643C58.0725 61 61 58.0725 61 54.4643Z" fill="white" fill-opacity="0.5"/>
</svg>
