<svg width="17" height="19" viewBox="0 0 17 19" fill="none" xmlns="http://www.w3.org/2000/svg">
<path d="M13.4911 18.1804H16.1826C16.2801 18.1804 16.3736 18.1387 16.4426 18.0643C16.5116 17.9899 16.5504 17.889 16.5504 17.7837L16.5518 11.6489C16.5518 8.44245 15.9113 5.9778 12.4379 5.9778C11.1175 5.92482 9.87239 6.65911 9.20048 7.88524C9.1972 7.8912 9.1922 7.89583 9.18624 7.89843C9.18029 7.90103 9.17371 7.90146 9.16751 7.89965C9.16131 7.89784 9.15582 7.89389 9.1519 7.88841C9.14797 7.88292 9.14582 7.8762 9.14577 7.86927V6.67062C9.14577 6.56538 9.10702 6.46445 9.03804 6.39004C8.96906 6.31562 8.8755 6.27382 8.77795 6.27382H6.22374C6.12619 6.27382 6.03263 6.31562 5.96365 6.39004C5.89467 6.46445 5.85592 6.56538 5.85592 6.67062V17.7831C5.85592 17.8884 5.89467 17.9893 5.96365 18.0637C6.03263 18.1381 6.12619 18.1799 6.22374 18.1799H8.91506C9.01261 18.1799 9.10616 18.1381 9.17514 18.0637C9.24412 17.9893 9.28287 17.8884 9.28287 17.7831V12.2901C9.28287 10.7369 9.55598 9.23269 11.3409 9.23269C13.1004 9.23269 13.1232 11.01 13.1232 12.3907V17.7836C13.1232 17.8889 13.162 17.9898 13.231 18.0642C13.3 18.1386 13.3935 18.1804 13.4911 18.1804ZM0 2.50089C0 3.67792 0.898117 4.64632 1.98915 4.64632C3.07992 4.64622 3.97748 3.67722 3.97748 2.5005C3.9773 1.32377 3.07964 0.355469 1.98879 0.355469C0.897657 0.355469 0 1.32397 0 2.50089ZM0.639909 18.1804H3.33481C3.43236 18.1804 3.52592 18.1386 3.5949 18.0642C3.66388 17.9898 3.70263 17.8889 3.70263 17.7836V6.67062C3.70263 6.56538 3.66388 6.46445 3.5949 6.39004C3.52592 6.31562 3.43236 6.27382 3.33481 6.27382H0.639909C0.542358 6.27382 0.448803 6.31562 0.379824 6.39004C0.310845 6.46445 0.272093 6.56538 0.272093 6.67062V17.7836C0.272093 17.8889 0.310845 17.9898 0.379824 18.0642C0.448803 18.1386 0.542358 18.1804 0.639909 18.1804Z" fill="#FF0099"/>
</svg>
