<svg width="320" height="385" viewBox="0 0 320 385" fill="none" xmlns="http://www.w3.org/2000/svg">
<path d="M48 0.0576172C21.5 0.0576172 0 21.5576 0 48.0576V336.058C0 362.558 21.5 384.058 48 384.058H80C106.5 384.058 128 362.558 128 336.058V48.0576C128 21.5576 106.5 0.0576172 80 0.0576172H48ZM240 0.0576172C213.5 0.0576172 192 21.5576 192 48.0576V336.058C192 362.558 213.5 384.058 240 384.058H272C298.5 384.058 320 362.558 320 336.058V48.0576C320 21.5576 298.5 0.0576172 272 0.0576172H240Z" fill="white" fill-opacity="0.4"/>
</svg>
