<svg width="21" height="16" viewBox="0 0 21 16" fill="none" xmlns="http://www.w3.org/2000/svg">
<path d="M17.4116 0.172852H3.64324C2.86075 0.172852 2.11032 0.483693 1.55701 1.037C1.00371 1.5903 0.692871 2.34074 0.692871 3.12322V12.9578C0.692871 13.7403 1.00371 14.4907 1.55701 15.044C2.11032 15.5973 2.86075 15.9082 3.64324 15.9082H17.4116C18.1941 15.9082 18.9446 15.5973 19.4979 15.044C20.0512 14.4907 20.362 13.7403 20.362 12.9578V3.12322C20.362 2.34074 20.0512 1.5903 19.4979 1.037C18.9446 0.483693 18.1941 0.172852 17.4116 0.172852ZM17.4116 2.13977L11.0192 6.53582C10.8697 6.62213 10.7001 6.66758 10.5274 6.66758C10.3548 6.66758 10.1852 6.62213 10.0357 6.53582L3.64324 2.13977H17.4116Z" fill="#FF0099"/>
</svg>
