<svg width="18" height="18" viewBox="0 0 18 18" fill="none" xmlns="http://www.w3.org/2000/svg">
<path d="M8.75696 0.449219C6.46077 0.449219 6.17254 0.45928 5.27074 0.500287C4.37063 0.541547 3.75621 0.684012 3.21864 0.893102C2.66248 1.10904 2.19078 1.39795 1.72085 1.86804C1.2505 2.33805 0.961599 2.80975 0.744984 3.36566C0.535302 3.90339 0.392667 4.51807 0.352168 5.41776C0.311838 6.31964 0.30127 6.60796 0.30127 8.90423C0.30127 11.2005 0.311415 11.4878 0.352337 12.3896C0.393766 13.2897 0.536232 13.9041 0.745153 14.4417C0.961261 14.9979 1.25017 15.4696 1.72026 15.9395C2.1901 16.4098 2.6618 16.6994 3.21754 16.9154C3.75553 17.1244 4.37003 17.2669 5.26998 17.3082C6.17186 17.3492 6.45984 17.3592 8.75594 17.3592C11.0524 17.3592 11.3397 17.3492 12.2415 17.3082C13.1416 17.2669 13.7567 17.1244 14.2947 16.9154C14.8506 16.6994 15.3216 16.4098 15.7914 15.9395C16.2617 15.4696 16.5505 14.9979 16.7672 14.442C16.9751 13.9041 17.1178 13.2895 17.1601 12.3898C17.2006 11.488 17.2111 11.2005 17.2111 8.90423C17.2111 6.60796 17.2006 6.31981 17.1601 5.41792C17.1178 4.51781 16.9751 3.90348 16.7672 3.36591C16.5505 2.80975 16.2617 2.33805 15.7914 1.86804C15.3211 1.39778 14.8508 1.10887 14.2942 0.893187C13.7552 0.684012 13.1404 0.541462 12.2403 0.500287C11.3384 0.45928 11.0513 0.449219 8.75433 0.449219H8.75696ZM7.99846 1.97288C8.22362 1.97254 8.47482 1.97288 8.75696 1.97288C11.0145 1.97288 11.282 1.981 12.1735 2.0215C12.9979 2.05921 13.4453 2.19694 13.7433 2.31268C14.1379 2.46589 14.4192 2.64911 14.715 2.94511C15.0109 3.24104 15.194 3.52284 15.3477 3.91743C15.4634 4.21504 15.6013 4.66248 15.6388 5.48683C15.6793 6.37815 15.6881 6.64583 15.6881 8.90228C15.6881 11.1587 15.6793 11.4265 15.6388 12.3177C15.6011 13.1421 15.4634 13.5895 15.3477 13.8872C15.1945 14.2818 15.0109 14.5628 14.715 14.8585C14.4191 15.1544 14.1381 15.3376 13.7433 15.4909C13.4456 15.6071 12.9979 15.7445 12.1735 15.7822C11.2822 15.8227 11.0145 15.8315 8.75696 15.8315C6.49932 15.8315 6.23172 15.8227 5.34049 15.7822C4.51613 15.7442 4.0687 15.6064 3.77041 15.4907C3.3759 15.3374 3.09402 15.1543 2.79809 14.8584C2.50217 14.5624 2.31904 14.2813 2.16541 13.8865C2.04966 13.5888 1.91176 13.1414 1.87422 12.3171C1.83372 11.4257 1.82561 11.1581 1.82561 8.90017C1.82561 6.64237 1.83372 6.37604 1.87422 5.48472C1.91193 4.66036 2.04966 4.21293 2.16541 3.91489C2.3187 3.5203 2.50217 3.2385 2.79818 2.94258C3.0941 2.64665 3.3759 2.46344 3.77049 2.30989C4.06853 2.19364 4.51613 2.05625 5.34049 2.01837C6.12046 1.98311 6.42272 1.97254 7.99846 1.97077V1.97288ZM13.2702 3.37674C12.7101 3.37674 12.2556 3.83077 12.2556 4.39099C12.2556 4.95113 12.7101 5.40558 13.2702 5.40558C13.8303 5.40558 14.2848 4.95113 14.2848 4.39099C14.2848 3.83085 13.8303 3.3764 13.2702 3.3764V3.37674ZM8.75696 4.5622C6.35914 4.5622 4.41501 6.50633 4.41501 8.90423C4.41501 11.3021 6.35914 13.2453 8.75696 13.2453C11.1549 13.2453 13.0983 11.3021 13.0983 8.90423C13.0983 6.50641 11.1547 4.5622 8.75679 4.5622H8.75696ZM8.75696 6.08586C10.3134 6.08586 11.5753 7.34759 11.5753 8.90423C11.5753 10.4607 10.3134 11.7226 8.75696 11.7226C7.2004 11.7226 5.93868 10.4607 5.93868 8.90423C5.93868 7.34759 7.2004 6.08586 8.75696 6.08586Z" fill="#FF0099"/>
</svg>
