<svg width="19" height="22" viewBox="0 0 19 22" fill="none" xmlns="http://www.w3.org/2000/svg">
<path d="M18.0535 6.66531V9.8532C17.8819 9.8532 17.6763 9.88805 17.4707 9.88805C15.9758 9.88043 14.5314 9.34612 13.3915 8.37905V15.1661C13.3978 16.5023 12.9643 17.8035 12.1578 18.8689C11.5894 19.6335 10.8503 20.2548 9.99924 20.6832C9.14823 21.1115 8.20891 21.3352 7.25616 21.3363C6.2197 21.3362 5.2004 21.0717 4.29466 20.5678C3.38892 20.064 2.62669 19.3374 2.08008 18.4568C3.17698 19.4849 4.65026 20.1365 6.26207 20.1365C7.21056 20.1387 8.14607 19.9161 8.992 19.4871C9.83792 19.0581 10.5702 18.4348 11.1289 17.6683C11.8834 16.6402 12.3634 15.3717 12.3634 13.9664V7.14449C13.4603 8.10461 14.8656 8.6535 16.4426 8.6535C16.6482 8.6535 16.8199 8.6535 17.0255 8.61865V6.5625C17.3339 6.63133 17.6083 6.66531 17.9168 6.66531H18.0535Z" fill="#FF0099"/>
<path d="M8.11336 9.02682V12.558C7.86757 12.4902 7.61382 12.4556 7.35885 12.4552C5.84985 12.4552 4.61616 13.7237 4.61616 15.2658C4.61616 15.6091 4.68499 15.9175 4.7878 16.2259C4.10213 15.7119 3.62207 14.8886 3.62207 13.9633C3.62207 12.4212 4.85576 11.1527 6.36476 11.1527C6.63833 11.1527 6.8788 11.1875 7.11839 11.2555V8.99284H7.324C7.59845 8.99284 7.87289 8.99284 8.11248 9.02769L8.11336 9.02682ZM13.9054 4.12518C13.2886 3.57629 12.8425 2.82266 12.6029 2.03418H13.4262V2.51424C13.5015 3.07308 13.6632 3.61596 13.9054 4.12518Z" fill="#FF0099"/>
<path d="M17.0596 6.59342V8.64957C16.888 8.68442 16.6824 8.68442 16.4768 8.68442C14.9821 8.67728 13.5378 8.1436 12.3976 7.17716V13.9642C12.4035 15.2998 11.97 16.6003 11.1639 17.6652C10.0321 19.1742 8.28441 20.1335 6.29622 20.1335C4.68441 20.1335 3.21113 19.4827 2.11423 18.4537C1.51063 17.4749 1.19034 16.3478 1.18896 15.1979C1.18896 11.8723 3.82885 9.16448 7.11868 9.06167V11.3243C6.87318 11.2566 6.61972 11.222 6.36505 11.2215C4.85605 11.2215 3.62236 12.4892 3.62236 14.0321C3.62236 14.9574 4.06844 15.8147 4.78809 16.2948C5.16534 17.3577 6.19341 18.1453 7.35827 18.1453C8.86728 18.1453 10.101 16.8768 10.101 15.3347V2.03418H12.6032C12.8437 2.85751 13.2889 3.57629 13.9057 4.12518C14.2173 4.7434 14.6615 5.2852 15.2067 5.71187C15.7519 6.13854 16.3846 6.43956 17.0596 6.59342Z" fill="#FF0099"/>
<path d="M7.11844 7.83055V8.99454C3.82774 9.09734 1.18873 11.8052 1.18873 15.1307C1.18873 16.3304 1.53113 17.4273 2.11399 18.3875C1.51324 17.8049 1.03652 17.1069 0.712516 16.3354C0.388509 15.5638 0.223908 14.7347 0.228614 13.8979C0.228614 10.5035 2.9713 7.76172 6.32996 7.76172C6.60441 7.76172 6.87885 7.79657 7.11844 7.83055Z" fill="#FF0099"/>
<path d="M12.6032 2.03571H10.101V15.2674C10.101 16.8095 8.86727 18.0789 7.35914 18.0789C6.15943 18.0789 5.16534 17.3244 4.78809 16.2275C5.23329 16.5359 5.78131 16.7415 6.36505 16.7415C7.8723 16.7415 9.10686 15.5078 9.10686 13.9648V0.699219H12.4324V0.768047C12.4324 0.904833 12.4324 1.04162 12.4664 1.17928C12.4664 1.45372 12.5352 1.76214 12.6032 2.03571ZM17.0596 5.32642V6.56098C15.6883 6.28653 14.5234 5.36127 13.8717 4.12671C14.7333 4.93337 15.88 5.36489 17.0596 5.32642Z" fill="#FF0099"/>
</svg>
