<svg width="165" height="121" viewBox="0 0 165 121" fill="none" xmlns="http://www.w3.org/2000/svg">
<path fill-rule="evenodd" clip-rule="evenodd" d="M52.404 12.342C62.4128 11.474 72.4536 11.0263 82.5 11C92.84 11 103.048 11.539 112.596 12.342C124.08 13.31 131.516 13.97 137.192 15.312C142.362 16.533 145.255 18.15 147.741 20.691C148.005 20.966 148.401 21.384 148.643 21.681C150.843 24.211 152.273 27.379 153.098 33.363C153.978 39.776 154 48.136 154 60.775C154 73.26 153.978 81.51 153.098 87.835C152.284 93.731 150.854 96.866 148.643 99.429C148.348 99.7671 148.043 100.097 147.73 100.419C145.2 102.993 142.34 104.588 137.302 105.776C131.725 107.096 124.454 107.734 113.168 108.68C103.609 109.472 93.236 110 82.5 110C71.764 110 61.38 109.472 51.832 108.68C40.546 107.734 33.275 107.096 27.698 105.776C22.649 104.588 19.789 102.993 17.27 100.419C16.9569 100.097 16.6525 99.767 16.357 99.429C14.157 96.866 12.727 93.731 11.902 87.835C11.022 81.51 11 73.26 11 60.775C11 48.136 11.022 39.765 11.902 33.363C12.727 27.379 14.157 24.211 16.357 21.681C16.61 21.384 16.995 20.966 17.259 20.691C19.745 18.15 22.638 16.533 27.808 15.312C33.495 13.97 40.92 13.31 52.404 12.342ZM0 60.775C0 36.113 0 23.782 8.03 14.487C8.426 14.025 8.965 13.442 9.394 13.002C17.974 4.213 29.15 3.267 51.48 1.386C61.27 0.549999 71.797 0 82.5 0C93.203 0 103.73 0.549999 113.52 1.386C135.85 3.267 147.026 4.213 155.606 13.002C156.035 13.442 156.563 14.025 156.97 14.487C165 23.782 165 36.113 165 60.775C165 85.14 165 97.328 156.959 106.623C156.515 107.131 156.056 107.626 155.584 108.108C146.993 116.897 136.026 117.81 114.081 119.636C104.28 120.461 93.588 121 82.5 121C71.412 121 60.72 120.45 50.93 119.636C28.974 117.81 18.007 116.886 9.416 108.108C8.94402 107.626 8.48551 107.131 8.041 106.623C0 97.328 0 85.14 0 60.775ZM57.75 37.213C57.7484 36.7556 57.8609 36.305 58.0774 35.902C58.2939 35.499 58.6075 35.1564 58.9897 34.9052C59.372 34.654 59.8109 34.5021 60.2667 34.4633C60.7225 34.4245 61.1808 34.5 61.6 34.683L114.708 57.981C116.908 58.949 116.908 62.051 114.708 63.019L61.6 86.306C61.1816 86.4886 60.7243 86.5642 60.2695 86.5259C59.8146 86.4876 59.3764 86.3367 58.9944 86.0868C58.6124 85.8369 58.2986 85.4958 58.0813 85.0943C57.8641 84.6928 57.7502 84.2435 57.75 83.787V37.213Z" fill="white" fill-opacity="0.5"/>
</svg>
