<svg width="24" height="23" viewBox="0 0 24 23" fill="none" xmlns="http://www.w3.org/2000/svg">
<path d="M12.4031 3.90137C13.2195 3.90137 14.057 3.92238 14.8687 3.95675L15.8274 4.00259L16.7451 4.05702L17.6045 4.11527L18.3894 4.17638C19.2412 4.24158 20.0428 4.60508 20.6531 5.20295C21.2633 5.80081 21.6432 6.59473 21.7259 7.44504L21.7641 7.85087L21.8357 8.71984C21.9025 9.62032 21.9522 10.602 21.9522 11.5406C21.9522 12.4793 21.9025 13.461 21.8357 14.3614L21.7641 15.2304C21.7517 15.3698 21.7392 15.5045 21.7259 15.6362C21.6432 16.4867 21.2632 17.2807 20.6527 17.8786C20.0422 18.4765 19.2405 18.8399 18.3885 18.9049L17.6054 18.9651L16.746 19.0243L15.8274 19.0787L14.8687 19.1245C14.0473 19.1602 13.2253 19.1787 12.4031 19.1799C11.5809 19.1787 10.7589 19.1602 9.93752 19.1245L8.97879 19.0787L8.06112 19.0243L7.20171 18.9651L6.41677 18.9049C5.56494 18.8397 4.76339 18.4762 4.15313 17.8783C3.54287 17.2805 3.16299 16.4866 3.08032 15.6362L3.04212 15.2304L2.9705 14.3614C2.89749 13.4229 2.85863 12.482 2.854 11.5406C2.854 10.602 2.90366 9.62032 2.9705 8.71984L3.04212 7.85087C3.05453 7.71146 3.06695 7.57681 3.08032 7.44504C3.16296 6.59488 3.5427 5.80108 4.15277 5.20324C4.76284 4.60539 5.56416 4.24179 6.41582 4.17638L7.1998 4.11527L8.05921 4.05702L8.97784 4.00259L9.93657 3.95675C10.7583 3.92107 11.5806 3.9026 12.4031 3.90137ZM12.4031 5.81119C11.6153 5.81119 10.8046 5.83219 10.0158 5.86466L9.08192 5.90954L8.18526 5.96206L7.34303 6.01936L6.57147 6.07952C6.16595 6.10829 5.78371 6.27971 5.49251 6.56339C5.20131 6.84708 5.01995 7.2247 4.98059 7.62933C4.86886 8.78382 4.76382 10.221 4.76382 11.5406C4.76382 12.8603 4.86886 14.2975 4.98059 15.452C5.06175 16.2846 5.72255 16.9321 6.57147 17.0018L7.34303 17.061L8.18526 17.1183L9.08192 17.1717L10.0158 17.2166C10.8046 17.2491 11.6153 17.2701 12.4031 17.2701C13.1909 17.2701 14.0016 17.2491 14.7904 17.2166L15.7243 17.1717L16.6209 17.1192L17.4632 17.0619L18.2347 17.0018C18.6402 16.973 19.0225 16.8016 19.3137 16.5179C19.6049 16.2342 19.7862 15.8566 19.8256 15.452C19.9373 14.2975 20.0424 12.8603 20.0424 11.5406C20.0424 10.221 19.9373 8.78382 19.8256 7.62933C19.7862 7.2247 19.6049 6.84708 19.3137 6.56339C19.0225 6.27971 18.6402 6.10829 18.2347 6.07952L17.4632 6.02031L16.6209 5.96302L15.7243 5.90954L14.7904 5.86466C13.9951 5.83044 13.1991 5.81261 12.4031 5.81119ZM10.4933 9.22499C10.4932 9.13166 10.516 9.03973 10.5595 8.95719C10.6031 8.87465 10.6661 8.804 10.7432 8.75138C10.8203 8.69877 10.9091 8.66578 11.0018 8.65529C11.0946 8.6448 11.1885 8.65713 11.2753 8.69119L11.3527 8.72939L15.3633 11.0441C15.4432 11.0902 15.5107 11.1548 15.5603 11.2326C15.6098 11.3104 15.6398 11.399 15.6478 11.4908C15.6557 11.5827 15.6414 11.6751 15.606 11.7603C15.5706 11.8454 15.5152 11.9208 15.4445 11.9799L15.3633 12.0372L11.3527 14.3528C11.2719 14.3997 11.1808 14.426 11.0875 14.4296C10.9942 14.4331 10.9014 14.4138 10.8172 14.3734C10.7331 14.3329 10.6601 14.2724 10.6046 14.1973C10.5492 14.1222 10.5129 14.0346 10.499 13.9422L10.4933 13.8563V9.22499Z" fill="#FF0099"/>
</svg>
